<svg xmlns="http://www.w3.org/2000/svg" xmlns:xlink="http://www.w3.org/1999/xlink" width="200" zoomAndPan="magnify" viewBox="0 0 150 38.249999" height="51" preserveAspectRatio="xMidYMid meet" version="1.0"><defs><g/><clipPath id="f0b5c28aed"><path d="M 2.5 0.0390625 L 40 0.0390625 L 40 37.515625 L 2.5 37.515625 Z M 2.5 0.0390625 " clip-rule="nonzero"/></clipPath></defs><g clip-path="url(#f0b5c28aed)"><path fill="#f55756" d="M 39.976562 18.777344 C 39.976562 29.125 31.585938 37.515625 21.238281 37.515625 C 10.886719 37.515625 2.5 29.125 2.5 18.777344 C 2.5 8.429688 10.886719 0.0390625 21.238281 0.0390625 C 31.585938 0.0390625 39.976562 8.429688 39.976562 18.777344 Z M 39.976562 18.777344 " fill-opacity="1" fill-rule="nonzero"/></g><g fill="#5b6268" fill-opacity="1"><g transform="translate(41.99953, 25.270329)"><g><path d="M 11.921875 -3.28125 L 4.796875 -3.28125 L 3.4375 0 L -0.203125 0 L 6.640625 -15.34375 L 10.15625 -15.34375 L 17.015625 0 L 13.28125 0 Z M 10.8125 -5.984375 L 8.375 -11.859375 L 5.9375 -5.984375 Z M 10.8125 -5.984375 "/></g></g></g><g fill="#5b6268" fill-opacity="1"><g transform="translate(58.796651, 25.270329)"><g><path d="M 13.453125 -11.796875 L 13.453125 0 L 10.21875 0 L 10.21875 -1.40625 C 9.757812 -0.894531 9.21875 -0.503906 8.59375 -0.234375 C 7.96875 0.0351562 7.285156 0.171875 6.546875 0.171875 C 5.003906 0.171875 3.78125 -0.269531 2.875 -1.15625 C 1.96875 -2.050781 1.515625 -3.375 1.515625 -5.125 L 1.515625 -11.796875 L 4.9375 -11.796875 L 4.9375 -5.640625 C 4.9375 -3.734375 5.734375 -2.78125 7.328125 -2.78125 C 8.140625 -2.78125 8.796875 -3.046875 9.296875 -3.578125 C 9.796875 -4.117188 10.046875 -4.914062 10.046875 -5.96875 L 10.046875 -11.796875 Z M 13.453125 -11.796875 "/></g></g></g><g fill="#5b6268" fill-opacity="1"><g transform="translate(73.86143, 25.270329)"><g><path d="M 1.578125 -16.265625 L 5 -16.265625 L 5 0 L 1.578125 0 Z M 1.578125 -16.265625 "/></g></g></g><g fill="#5b6268" fill-opacity="1"><g transform="translate(80.461863, 25.270329)"><g><path d="M 6.328125 -11.96875 C 8.160156 -11.96875 9.566406 -11.53125 10.546875 -10.65625 C 11.523438 -9.789062 12.015625 -8.484375 12.015625 -6.734375 L 12.015625 0 L 8.8125 0 L 8.8125 -1.46875 C 8.164062 -0.375 6.96875 0.171875 5.21875 0.171875 C 4.3125 0.171875 3.523438 0.0195312 2.859375 -0.28125 C 2.191406 -0.59375 1.679688 -1.019531 1.328125 -1.5625 C 0.984375 -2.101562 0.8125 -2.710938 0.8125 -3.390625 C 0.8125 -4.492188 1.222656 -5.359375 2.046875 -5.984375 C 2.867188 -6.609375 4.144531 -6.921875 5.875 -6.921875 L 8.59375 -6.921875 C 8.59375 -7.671875 8.363281 -8.242188 7.90625 -8.640625 C 7.457031 -9.046875 6.78125 -9.25 5.875 -9.25 C 5.25 -9.25 4.628906 -9.148438 4.015625 -8.953125 C 3.410156 -8.753906 2.898438 -8.488281 2.484375 -8.15625 L 1.25 -10.546875 C 1.894531 -10.992188 2.664062 -11.34375 3.5625 -11.59375 C 4.457031 -11.84375 5.378906 -11.96875 6.328125 -11.96875 Z M 6.078125 -2.125 C 6.660156 -2.125 7.175781 -2.257812 7.625 -2.53125 C 8.082031 -2.800781 8.40625 -3.203125 8.59375 -3.734375 L 8.59375 -4.9375 L 6.25 -4.9375 C 4.84375 -4.9375 4.140625 -4.472656 4.140625 -3.546875 C 4.140625 -3.109375 4.3125 -2.757812 4.65625 -2.5 C 5 -2.25 5.472656 -2.125 6.078125 -2.125 Z M 6.078125 -2.125 "/></g></g></g><g fill="#5b6268" fill-opacity="1"><g transform="translate(93.991655, 25.270329)"><g><path d="M 1.8125 -15.34375 L 5.375 -15.34375 L 5.375 -2.890625 L 13.0625 -2.890625 L 13.0625 0 L 1.8125 0 Z M 1.8125 -15.34375 "/></g></g></g><g fill="#5b6268" fill-opacity="1"><g transform="translate(107.236379, 25.270329)"><g><path d="M 1.578125 -11.796875 L 5 -11.796875 L 5 0 L 1.578125 0 Z M 3.28125 -13.4375 C 2.65625 -13.4375 2.144531 -13.617188 1.75 -13.984375 C 1.351562 -14.347656 1.15625 -14.800781 1.15625 -15.34375 C 1.15625 -15.882812 1.351562 -16.335938 1.75 -16.703125 C 2.144531 -17.066406 2.65625 -17.25 3.28125 -17.25 C 3.90625 -17.25 4.414062 -17.070312 4.8125 -16.71875 C 5.207031 -16.375 5.40625 -15.9375 5.40625 -15.40625 C 5.40625 -14.84375 5.207031 -14.375 4.8125 -14 C 4.414062 -13.625 3.90625 -13.4375 3.28125 -13.4375 Z M 3.28125 -13.4375 "/></g></g></g><g fill="#5b6268" fill-opacity="1"><g transform="translate(113.836812, 25.270329)"><g><path d="M 5.546875 0.171875 C 4.566406 0.171875 3.609375 0.0507812 2.671875 -0.1875 C 1.734375 -0.425781 0.988281 -0.726562 0.4375 -1.09375 L 1.578125 -3.546875 C 2.109375 -3.210938 2.742188 -2.9375 3.484375 -2.71875 C 4.234375 -2.507812 4.960938 -2.40625 5.671875 -2.40625 C 7.117188 -2.40625 7.84375 -2.765625 7.84375 -3.484375 C 7.84375 -3.816406 7.644531 -4.054688 7.25 -4.203125 C 6.863281 -4.347656 6.257812 -4.472656 5.4375 -4.578125 C 4.46875 -4.722656 3.671875 -4.890625 3.046875 -5.078125 C 2.421875 -5.273438 1.875 -5.613281 1.40625 -6.09375 C 0.945312 -6.570312 0.71875 -7.257812 0.71875 -8.15625 C 0.71875 -8.894531 0.929688 -9.550781 1.359375 -10.125 C 1.796875 -10.707031 2.425781 -11.160156 3.25 -11.484375 C 4.082031 -11.804688 5.0625 -11.96875 6.1875 -11.96875 C 7.019531 -11.96875 7.847656 -11.875 8.671875 -11.6875 C 9.492188 -11.507812 10.175781 -11.257812 10.71875 -10.9375 L 9.578125 -8.5 C 8.535156 -9.082031 7.40625 -9.375 6.1875 -9.375 C 5.445312 -9.375 4.894531 -9.269531 4.53125 -9.0625 C 4.164062 -8.863281 3.984375 -8.601562 3.984375 -8.28125 C 3.984375 -7.914062 4.179688 -7.660156 4.578125 -7.515625 C 4.972656 -7.367188 5.601562 -7.234375 6.46875 -7.109375 C 7.425781 -6.941406 8.210938 -6.765625 8.828125 -6.578125 C 9.441406 -6.398438 9.972656 -6.066406 10.421875 -5.578125 C 10.878906 -5.097656 11.109375 -4.429688 11.109375 -3.578125 C 11.109375 -2.847656 10.890625 -2.195312 10.453125 -1.625 C 10.015625 -1.050781 9.375 -0.609375 8.53125 -0.296875 C 7.695312 0.015625 6.703125 0.171875 5.546875 0.171875 Z M 5.546875 0.171875 "/></g></g></g><g fill="#5b6268" fill-opacity="1"><g transform="translate(125.480768, 25.270329)"><g><path d="M 9.1875 -0.5625 C 8.851562 -0.320312 8.441406 -0.140625 7.953125 -0.015625 C 7.460938 0.109375 6.945312 0.171875 6.40625 0.171875 C 5 0.171875 3.910156 -0.179688 3.140625 -0.890625 C 2.378906 -1.609375 2 -2.664062 2 -4.0625 L 2 -8.90625 L 0.171875 -8.90625 L 0.171875 -11.53125 L 2 -11.53125 L 2 -14.40625 L 5.421875 -14.40625 L 5.421875 -11.53125 L 8.359375 -11.53125 L 8.359375 -8.90625 L 5.421875 -8.90625 L 5.421875 -4.09375 C 5.421875 -3.601562 5.546875 -3.222656 5.796875 -2.953125 C 6.054688 -2.679688 6.421875 -2.546875 6.890625 -2.546875 C 7.421875 -2.546875 7.878906 -2.691406 8.265625 -2.984375 Z M 9.1875 -0.5625 "/></g></g></g><g fill="#5b6268" fill-opacity="1"><g transform="translate(135.019603, 25.270329)"><g><path d="M 6.328125 -11.96875 C 8.160156 -11.96875 9.566406 -11.53125 10.546875 -10.65625 C 11.523438 -9.789062 12.015625 -8.484375 12.015625 -6.734375 L 12.015625 0 L 8.8125 0 L 8.8125 -1.46875 C 8.164062 -0.375 6.96875 0.171875 5.21875 0.171875 C 4.3125 0.171875 3.523438 0.0195312 2.859375 -0.28125 C 2.191406 -0.59375 1.679688 -1.019531 1.328125 -1.5625 C 0.984375 -2.101562 0.8125 -2.710938 0.8125 -3.390625 C 0.8125 -4.492188 1.222656 -5.359375 2.046875 -5.984375 C 2.867188 -6.609375 4.144531 -6.921875 5.875 -6.921875 L 8.59375 -6.921875 C 8.59375 -7.671875 8.363281 -8.242188 7.90625 -8.640625 C 7.457031 -9.046875 6.78125 -9.25 5.875 -9.25 C 5.25 -9.25 4.628906 -9.148438 4.015625 -8.953125 C 3.410156 -8.753906 2.898438 -8.488281 2.484375 -8.15625 L 1.25 -10.546875 C 1.894531 -10.992188 2.664062 -11.34375 3.5625 -11.59375 C 4.457031 -11.84375 5.378906 -11.96875 6.328125 -11.96875 Z M 6.078125 -2.125 C 6.660156 -2.125 7.175781 -2.257812 7.625 -2.53125 C 8.082031 -2.800781 8.40625 -3.203125 8.59375 -3.734375 L 8.59375 -4.9375 L 6.25 -4.9375 C 4.84375 -4.9375 4.140625 -4.472656 4.140625 -3.546875 C 4.140625 -3.109375 4.3125 -2.757812 4.65625 -2.5 C 5 -2.25 5.472656 -2.125 6.078125 -2.125 Z M 6.078125 -2.125 "/></g></g></g><g fill="#ffffff" fill-opacity="1"><g transform="translate(11.119062, 26.294517)"><g><path d="M 13.5 -3.71875 L 5.4375 -3.71875 L 3.890625 0 L -0.21875 0 L 7.515625 -17.375 L 11.5 -17.375 L 19.265625 0 L 15.046875 0 Z M 12.234375 -6.78125 L 9.484375 -13.4375 L 6.734375 -6.78125 Z M 12.234375 -6.78125 "/></g></g></g><g fill="#ffffff" fill-opacity="1"><g transform="translate(30.140006, 26.294517)"><g><path d="M 3.25 0.203125 C 2.570312 0.203125 2 -0.0234375 1.53125 -0.484375 C 1.070312 -0.953125 0.84375 -1.535156 0.84375 -2.234375 C 0.84375 -2.941406 1.070312 -3.515625 1.53125 -3.953125 C 2 -4.398438 2.570312 -4.625 3.25 -4.625 C 3.925781 -4.625 4.492188 -4.398438 4.953125 -3.953125 C 5.421875 -3.515625 5.65625 -2.941406 5.65625 -2.234375 C 5.65625 -1.535156 5.421875 -0.953125 4.953125 -0.484375 C 4.492188 -0.0234375 3.925781 0.203125 3.25 0.203125 Z M 3.25 0.203125 "/></g></g></g></svg>